M48
; DRILL file {KiCad (5.1.5)-3} date 18/04/2020 19:12:45
; FORMAT={-:-/ absolute / metric / decimal}
; #@! TF.CreationDate,2020-04-18T19:12:45+02:00
; #@! TF.GenerationSoftware,Kicad,Pcbnew,(5.1.5)-3
FMAT,2
METRIC
T1C0.400
T2C0.600
T3C0.700
T4C0.800
T5C0.900
T6C1.016
T7C1.100
T8C1.500
T9C2.200
T10C1.700
T11C3.048
T12C3.050
T13C3.988
T14C4.000
%
G90
G05
T1
X34.659Y-22.812
X35.659Y-23.562
X37.688Y-24.312
X39.159Y-25.062
X41.25Y-42.0
X41.75Y-120.45
X44.188Y-25.812
X45.159Y-26.562
X48.938Y-27.312
X52.188Y-28.062
X54.159Y-27.312
X56.7Y-41.7
X57.1Y-44.0
X58.538Y-26.562
X60.159Y-28.812
X63.159Y-29.562
X64.275Y-154.25
X69.0Y-69.5
X72.159Y-22.812
X75.159Y-23.562
X76.6Y-34.3
X78.159Y-24.312
X83.138Y-25.062
X84.638Y-26.562
X89.188Y-25.812
X90.159Y-28.812
X93.159Y-29.562
X96.159Y-30.312
X102.159Y-22.812
X105.159Y-23.562
X107.5Y-70.5
X108.159Y-24.312
X112.338Y-25.062
X114.159Y-26.562
X117.938Y-28.062
X119.588Y-25.812
X123.159Y-28.812
X125.909Y-29.562
X135.159Y-22.812
X138.159Y-23.562
X141.159Y-24.312
X142.0Y-37.9
X144.838Y-25.062
X148.038Y-26.562
X150.25Y-70.5
X152.888Y-25.812
X153.159Y-28.812
X156.159Y-29.562
X161.875Y-160.85
X165.159Y-22.812
X168.159Y-23.562
X171.159Y-24.312
X174.159Y-25.062
X177.159Y-26.562
X177.25Y-92.25
X178.6Y-38.1
X181.338Y-28.062
X184.388Y-25.812
X186.159Y-28.812
X189.159Y-29.562
X189.25Y-71.25
X198.159Y-22.812
X201.159Y-23.562
X204.059Y-25.859
X204.159Y-24.312
X205.5Y-40.1
X205.9Y-47.6
X207.159Y-25.062
X208.409Y-25.062
X209.659Y-24.312
X210.159Y-26.562
X210.409Y-28.062
X210.659Y-22.812
X211.159Y-31.562
X212.659Y-27.312
X212.909Y-28.312
X216.75Y-92.25
X216.8Y-28.05
X217.6Y-32.0
X217.659Y-29.562
X219.5Y-27.775
X224.059Y-48.512
X225.059Y-51.112
X225.1Y-28.8
X225.159Y-23.562
X225.159Y-25.062
X226.0Y-38.0
X226.409Y-32.312
X227.2Y-164.6
X227.75Y-72.25
X229.7Y-158.6
X230.25Y-33.5
X231.6Y-28.1
X231.659Y-39.312
X231.75Y-41.5
X232.9Y-164.5
X235.9Y-158.5
X236.0Y-36.75
X237.909Y-24.312
X237.909Y-26.562
X240.2Y-164.7
X243.353Y-47.868
X244.0Y-34.25
X244.7Y-158.0
X246.5Y-164.7
X247.3Y-159.5
X247.75Y-36.0
X248.9Y-156.6
X249.4Y-50.9
X249.659Y-32.562
X250.25Y-28.5
X250.75Y-38.25
X250.9Y-154.5
X251.2Y-164.7
X251.509Y-32.962
X256.0Y-164.8
X257.4Y-159.0
X257.5Y-43.0
X259.9Y-36.0
X260.7Y-164.9
X262.8Y-38.2
X266.0Y-40.3
X266.459Y-32.262
X267.359Y-32.612
X268.0Y-114.0
X268.229Y-32.644
X279.15Y-24.75
X284.4Y-36.0
X287.425Y-25.8
X289.25Y-28.5
X289.55Y-33.7
X290.0Y-30.25
X290.3Y-37.5
X292.0Y-33.7
X292.6Y-36.9
X292.909Y-27.312
X293.534Y-30.437
X294.0Y-120.3
X294.2Y-38.1
X294.55Y-36.775
X295.034Y-31.437
X295.286Y-36.186
X295.534Y-27.187
X296.925Y-38.075
X297.034Y-31.937
X297.5Y-44.75
X297.8Y-34.7
X299.6Y-37.85
X299.7Y-35.425
X300.909Y-29.812
X302.0Y-35.5
X302.659Y-27.562
X304.159Y-29.062
X304.3Y-38.1
X304.559Y-27.712
X306.159Y-28.312
X306.5Y-113.5
X306.6Y-38.05
X308.409Y-28.312
X309.2Y-37.425
X312.259Y-38.312
X312.5Y-23.25
X313.559Y-26.812
X316.15Y-24.275
X316.15Y-26.85
X324.85Y-34.75
X327.8Y-34.75
X330.3Y-34.75
X332.9Y-34.75
X334.409Y-27.312
X335.4Y-34.7
X336.059Y-27.912
X351.159Y-27.312
X354.159Y-29.562
X356.738Y-26.562
X360.159Y-28.812
X361.288Y-25.812
X361.8Y-83.6
X362.1Y-60.6
X366.159Y-28.062
X369.159Y-23.562
X372.159Y-24.312
X375.159Y-25.062
X384.159Y-22.812
X387.159Y-27.312
X390.409Y-29.562
X393.159Y-26.562
X396.159Y-28.812
X399.488Y-25.812
X404.538Y-28.062
X408.159Y-25.812
X409.409Y-28.062
X412.5Y-134.25
X413.0Y-120.75
X263.879Y-28.937
X263.884Y-30.262
X264.729Y-28.937
X264.734Y-30.262
X265.579Y-28.937
X265.584Y-30.262
X266.429Y-28.937
X266.434Y-30.262
X267.279Y-28.937
X267.284Y-30.262
X268.129Y-28.937
X268.134Y-30.262
X268.979Y-28.937
X268.984Y-30.262
X269.834Y-28.937
X269.834Y-30.262
T2
X273.788Y-32.776
X273.788Y-34.276
T3
X259.159Y-23.562
X259.159Y-28.662
X278.207Y-27.185
X285.827Y-27.185
X278.207Y-37.229
X285.827Y-37.229
X278.207Y-34.718
X285.827Y-34.718
X278.207Y-39.74
X285.827Y-39.74
X278.207Y-42.251
X285.827Y-42.251
X278.207Y-29.696
X285.827Y-29.696
X278.207Y-32.207
X285.827Y-32.207
T4
X223.84Y-33.609
X223.84Y-38.689
X253.84Y-37.609
X253.84Y-42.689
X199.84Y-33.609
X199.84Y-38.689
X275.21Y-37.167
X275.21Y-42.247
X139.84Y-33.609
X139.84Y-38.689
X43.84Y-33.562
X43.84Y-38.642
X345.84Y-35.609
X345.84Y-40.689
X73.84Y-37.609
X73.84Y-42.689
X58.84Y-35.562
X58.84Y-40.642
X309.783Y-23.121
X314.783Y-23.121
X109.84Y-37.609
X109.84Y-42.689
X46.84Y-35.562
X46.84Y-40.642
X229.84Y-37.609
X229.84Y-42.689
X375.84Y-31.609
X375.84Y-36.689
X390.84Y-37.609
X390.84Y-42.689
X184.84Y-31.609
X184.84Y-36.689
X384.84Y-33.609
X384.84Y-38.689
X241.84Y-37.609
X241.84Y-42.689
X363.84Y-31.609
X363.84Y-36.689
X256.84Y-31.609
X256.84Y-36.689
X154.84Y-35.609
X154.84Y-40.689
X259.84Y-33.609
X259.84Y-38.689
X130.84Y-35.609
X130.84Y-40.689
X37.84Y-37.562
X37.84Y-42.642
X151.84Y-33.609
X151.84Y-38.689
X34.84Y-35.562
X34.84Y-40.642
X97.84Y-37.609
X97.84Y-42.689
X55.84Y-33.609
X55.84Y-38.689
X378.84Y-37.609
X378.84Y-42.689
X315.409Y-44.062
X315.409Y-46.562
X208.84Y-31.609
X208.84Y-36.689
X211.84Y-33.609
X211.84Y-38.689
X226.84Y-35.609
X226.84Y-40.689
X348.84Y-33.609
X348.84Y-38.689
X235.84Y-33.609
X235.84Y-38.689
X354.84Y-37.609
X354.84Y-42.689
X148.84Y-31.609
X148.84Y-36.689
X133.84Y-37.609
X133.84Y-42.689
X70.84Y-35.609
X70.84Y-40.689
X145.84Y-37.609
X145.84Y-42.689
X262.84Y-35.609
X262.84Y-40.689
X88.84Y-31.562
X88.84Y-36.642
X52.84Y-31.562
X52.84Y-36.642
X399.84Y-31.609
X399.84Y-36.689
X307.925Y-43.289
X312.925Y-43.289
X396.84Y-33.609
X396.84Y-38.689
X393.84Y-35.609
X393.84Y-40.689
X193.84Y-37.609
X193.84Y-42.689
X369.84Y-35.609
X369.84Y-40.689
X244.84Y-31.609
X244.84Y-36.689
X160.84Y-31.609
X160.84Y-36.689
X187.84Y-33.609
X187.84Y-38.689
X142.84Y-35.609
X142.84Y-40.689
X136.84Y-31.609
X136.84Y-36.689
X31.84Y-33.562
X31.84Y-38.642
X79.84Y-33.609
X79.84Y-38.689
X265.84Y-37.609
X265.84Y-42.689
X112.84Y-31.609
X112.84Y-36.689
X357.84Y-35.609
X357.84Y-40.689
X40.84Y-31.562
X40.84Y-36.642
X405.84Y-35.609
X405.84Y-40.689
X329.794Y-44.065
X329.794Y-46.565
X408.84Y-33.609
X408.84Y-38.689
X232.84Y-31.609
X232.84Y-36.689
X175.84Y-33.609
X175.84Y-38.689
X351.84Y-31.609
X351.84Y-36.689
X247.84Y-33.609
X247.84Y-38.689
X320.159Y-44.812
X325.039Y-44.812
X127.84Y-33.609
X127.84Y-38.689
X121.84Y-37.609
X121.84Y-42.689
X289.459Y-25.61
X289.459Y-40.85
X291.999Y-25.61
X291.999Y-40.85
X294.539Y-25.61
X294.539Y-40.85
X297.079Y-25.61
X297.079Y-40.85
X299.619Y-25.61
X299.619Y-40.85
X302.159Y-25.61
X302.159Y-40.85
X304.699Y-25.61
X304.699Y-40.85
X307.239Y-25.61
X307.239Y-40.85
X309.779Y-25.61
X309.779Y-40.85
X312.319Y-25.61
X312.319Y-40.85
X314.859Y-25.61
X314.859Y-40.85
X317.399Y-25.61
X317.399Y-40.85
X319.939Y-25.61
X319.939Y-40.85
X322.479Y-25.61
X322.479Y-40.85
X325.019Y-25.61
X325.019Y-40.85
X327.559Y-25.61
X327.559Y-40.85
X330.099Y-25.61
X330.099Y-40.85
X332.639Y-25.61
X332.639Y-40.85
X335.179Y-25.61
X335.179Y-40.85
X337.719Y-25.61
X337.719Y-40.85
X118.84Y-35.609
X118.84Y-40.689
X124.84Y-31.609
X124.84Y-36.689
X28.84Y-31.562
X28.84Y-36.642
X91.84Y-33.609
X91.84Y-38.689
X268.84Y-35.582
X268.84Y-40.662
X115.84Y-33.609
X115.84Y-38.689
X402.84Y-37.609
X402.84Y-42.689
X342.84Y-37.562
X342.84Y-42.642
X387.84Y-31.609
X387.84Y-36.689
X202.84Y-35.609
X202.84Y-40.689
X166.84Y-35.609
X166.84Y-40.689
X360.84Y-33.609
X360.84Y-38.689
X217.84Y-37.609
X217.84Y-42.689
X181.84Y-37.609
X181.84Y-42.689
X157.84Y-37.609
X157.84Y-42.689
X196.84Y-31.609
X196.84Y-36.689
X94.84Y-35.609
X94.84Y-40.689
X106.84Y-35.609
X106.84Y-40.689
X100.84Y-31.609
X100.84Y-36.689
X61.84Y-37.562
X61.84Y-42.642
X82.84Y-35.609
X82.84Y-40.689
X411.84Y-31.609
X411.84Y-36.689
X372.84Y-33.609
X372.84Y-38.689
X205.84Y-37.609
X205.84Y-42.689
X214.84Y-35.609
X214.84Y-40.689
X366.84Y-37.609
X366.84Y-42.689
X250.84Y-35.609
X250.84Y-40.689
X190.84Y-35.609
X190.84Y-40.689
X272.159Y-37.167
X272.159Y-42.247
X178.84Y-35.609
X178.84Y-40.689
X67.84Y-33.609
X67.84Y-38.689
X169.84Y-37.609
X169.84Y-42.689
X76.84Y-31.562
X76.84Y-36.642
X64.84Y-31.562
X64.84Y-36.642
X103.84Y-33.609
X103.84Y-38.689
X49.84Y-37.562
X49.84Y-42.642
X85.84Y-37.609
X85.84Y-42.689
X238.84Y-35.609
X238.84Y-40.689
X220.84Y-31.609
X220.84Y-36.689
X172.84Y-31.609
X172.84Y-36.689
X163.84Y-33.609
X163.84Y-38.689
X381.84Y-35.609
X381.84Y-40.689
T5
X273.438Y-25.89
X275.978Y-25.89
T6
X240.451Y-24.061
X240.451Y-26.601
X242.991Y-24.061
X242.991Y-26.601
X245.531Y-24.061
X245.531Y-26.601
T7
X215.127Y-23.654
X215.127Y-28.154
X221.627Y-23.654
X221.627Y-28.154
X227.866Y-23.68
X227.866Y-28.18
X234.366Y-23.68
X234.366Y-28.18
T8
X249.761Y-159.997
X256.111Y-157.457
X140.224Y-121.897
X146.574Y-119.357
X364.061Y-140.947
X370.411Y-138.407
X235.474Y-121.897
X241.824Y-119.357
X111.649Y-59.985
X117.999Y-57.445
X298.974Y-111.102
X301.514Y-117.452
X135.461Y-59.985
X141.811Y-57.445
X173.561Y-59.985
X179.911Y-57.445
X240.236Y-83.797
X246.586Y-81.257
X164.036Y-83.797
X170.386Y-81.257
X383.111Y-59.985
X389.461Y-57.445
X35.449Y-102.847
X41.799Y-100.307
X244.999Y-140.947
X251.349Y-138.407
X33.067Y-140.947
X39.417Y-138.407
X30.686Y-83.797
X37.036Y-81.257
X87.836Y-83.797
X94.186Y-81.257
X287.861Y-83.797
X294.211Y-81.257
X302.149Y-164.76
X308.499Y-162.22
X83.074Y-159.997
X89.424Y-157.457
X292.624Y-112.372
X298.974Y-109.832
X168.799Y-140.947
X175.149Y-138.407
X364.061Y-159.997
X370.411Y-157.457
X42.592Y-140.947
X48.942Y-138.407
X154.352Y-59.985
X160.702Y-57.445
X402.161Y-59.985
X408.511Y-57.445
X221.186Y-159.997
X227.536Y-157.457
X183.086Y-83.797
X189.436Y-81.257
X402.161Y-83.797
X408.511Y-81.257
X268.811Y-102.847
X275.161Y-100.307
X345.011Y-83.797
X351.361Y-81.257
X154.511Y-159.997
X160.861Y-157.457
X49.736Y-83.797
X56.086Y-81.257
X292.624Y-102.847
X298.974Y-100.307
X173.561Y-102.847
X179.911Y-100.307
X106.886Y-83.797
X113.236Y-81.257
X216.424Y-121.897
X222.774Y-119.357
X164.036Y-159.997
X170.386Y-157.457
X273.574Y-121.897
X279.924Y-119.357
X159.274Y-121.897
X165.624Y-119.357
X408.511Y-111.102
X411.051Y-117.452
X273.574Y-59.985
X279.924Y-57.445
X92.599Y-59.985
X98.949Y-57.445
X345.011Y-59.985
X351.361Y-57.445
X280.717Y-140.947
X287.067Y-138.407
X83.074Y-121.897
X89.424Y-119.357
X345.011Y-102.847
X351.361Y-100.307
X275.955Y-159.997
X282.305Y-157.457
X230.711Y-102.847
X237.061Y-100.307
X383.111Y-83.797
X389.461Y-81.257
X206.899Y-140.947
X213.249Y-138.407
X321.199Y-121.897
X327.549Y-119.357
X125.936Y-83.797
X132.286Y-81.257
X37.83Y-121.897
X44.18Y-119.357
X235.474Y-59.985
X241.824Y-57.445
X30.686Y-59.985
X37.036Y-57.445
X254.524Y-121.897
X260.874Y-119.357
X340.249Y-164.76
X346.599Y-162.22
X273.574Y-159.997
X279.924Y-157.457
X345.011Y-121.897
X351.361Y-119.357
X197.374Y-121.897
X203.724Y-119.357
X59.261Y-159.997
X65.611Y-157.457
X254.524Y-59.985
X260.874Y-57.445
X383.111Y-102.847
X389.461Y-100.307
X259.286Y-159.997
X265.636Y-157.457
X221.186Y-83.797
X227.536Y-81.257
X75.93Y-159.997
X82.28Y-157.457
X259.286Y-83.797
X265.636Y-81.257
X364.061Y-59.985
X370.411Y-57.445
X278.336Y-159.997
X284.686Y-157.457
X249.761Y-102.847
X256.111Y-100.307
X59.261Y-102.847
X65.611Y-100.307
X297.386Y-59.985
X303.736Y-57.445
X73.549Y-140.947
X79.899Y-138.407
X54.499Y-140.947
X60.849Y-138.407
X56.88Y-159.997
X63.23Y-157.457
X121.174Y-121.897
X127.524Y-119.357
X345.011Y-140.947
X351.361Y-138.407
X152.13Y-159.997
X158.48Y-157.457
X321.199Y-164.76
X327.549Y-162.22
X192.611Y-59.985
X198.961Y-57.445
X216.424Y-59.985
X222.774Y-57.445
X364.061Y-83.797
X370.411Y-81.257
X240.236Y-159.997
X246.586Y-157.457
X321.199Y-83.797
X327.549Y-81.257
X254.524Y-159.997
X260.874Y-157.457
X232.934Y-159.997
X239.284Y-157.457
X154.511Y-102.847
X160.861Y-100.307
X383.111Y-121.897
X389.461Y-119.357
X68.786Y-83.797
X75.136Y-81.257
X78.311Y-102.847
X84.661Y-100.307
X64.024Y-121.897
X70.374Y-119.357
X111.649Y-140.947
X117.999Y-138.407
X130.699Y-140.947
X137.049Y-138.407
X92.599Y-140.947
X98.949Y-138.407
X80.692Y-159.997
X87.042Y-157.457
X383.111Y-159.997
X389.461Y-157.457
X225.949Y-159.997
X232.299Y-157.457
X383.111Y-140.947
X389.461Y-138.407
X364.061Y-102.847
X370.411Y-100.307
X54.499Y-159.997
X60.849Y-157.457
X102.124Y-121.897
X108.474Y-119.357
X144.986Y-159.997
X151.336Y-157.457
X285.48Y-121.897
X291.83Y-119.357
X211.661Y-102.847
X218.011Y-100.307
X116.411Y-102.847
X122.761Y-100.307
X97.361Y-102.847
X103.711Y-100.307
X144.986Y-83.797
X151.336Y-81.257
X187.849Y-140.947
X194.199Y-138.407
X35.449Y-159.997
X41.799Y-157.457
X225.949Y-140.947
X232.299Y-138.407
X149.749Y-140.947
X156.099Y-138.407
X178.324Y-121.897
X184.674Y-119.357
X54.499Y-59.985
X60.849Y-57.445
X408.511Y-149.202
X411.051Y-155.552
X73.549Y-59.985
X79.899Y-57.445
X135.461Y-102.847
X141.811Y-100.307
X364.061Y-121.897
X370.411Y-119.357
X244.999Y-159.997
X251.349Y-157.457
X33.067Y-121.897
X39.417Y-119.357
X64.024Y-159.997
X70.374Y-157.457
X321.199Y-59.985
X327.549Y-57.445
X202.136Y-83.797
X208.486Y-81.257
X192.611Y-102.847
X198.961Y-100.307
X321.199Y-102.847
X327.549Y-100.307
X321.199Y-145.71
X327.549Y-143.17
X33.067Y-159.997
X39.417Y-157.457
T9
X29.0Y-44.462
X29.0Y-25.712
X411.525Y-25.712
X411.525Y-44.462
T10
X134.191Y-105.387
X144.351Y-105.387
X362.791Y-124.437
X372.951Y-124.437
X243.729Y-162.537
X253.889Y-162.537
X31.797Y-124.437
X41.957Y-124.437
X62.754Y-162.537
X72.914Y-162.537
X319.929Y-62.525
X330.089Y-62.525
X200.866Y-86.337
X211.026Y-86.337
X191.341Y-105.387
X201.501Y-105.387
X319.929Y-105.387
X330.089Y-105.387
X319.929Y-148.25
X330.089Y-148.25
X31.797Y-162.537
X41.957Y-162.537
X248.491Y-162.537
X258.651Y-162.537
X138.954Y-124.437
X149.114Y-124.437
X362.791Y-143.487
X372.951Y-143.487
X234.204Y-124.437
X244.364Y-124.437
X110.379Y-62.525
X120.539Y-62.525
X296.434Y-109.832
X296.434Y-119.992
X134.191Y-62.525
X144.351Y-62.525
X172.291Y-62.525
X182.451Y-62.525
X238.966Y-86.337
X249.126Y-86.337
X162.766Y-86.337
X172.926Y-86.337
X381.841Y-62.525
X392.001Y-62.525
X34.179Y-105.387
X44.339Y-105.387
X243.729Y-143.487
X253.889Y-143.487
X31.797Y-143.487
X41.957Y-143.487
X29.416Y-86.337
X39.576Y-86.337
X86.566Y-86.337
X96.726Y-86.337
X286.591Y-86.337
X296.751Y-86.337
X300.879Y-167.3
X311.039Y-167.3
X81.804Y-162.537
X91.964Y-162.537
X291.354Y-114.912
X301.514Y-114.912
X167.529Y-143.487
X177.689Y-143.487
X362.791Y-162.537
X372.951Y-162.537
X41.322Y-143.487
X51.482Y-143.487
X153.082Y-62.525
X163.242Y-62.525
X400.891Y-62.525
X411.051Y-62.525
X219.916Y-162.537
X230.076Y-162.537
X181.816Y-86.337
X191.976Y-86.337
X400.891Y-86.337
X411.051Y-86.337
X267.541Y-105.387
X277.701Y-105.387
X343.741Y-86.337
X353.901Y-86.337
X153.241Y-162.537
X163.401Y-162.537
X48.466Y-86.337
X58.626Y-86.337
X291.354Y-105.387
X301.514Y-105.387
X172.291Y-105.387
X182.451Y-105.387
X105.616Y-86.337
X115.776Y-86.337
X215.154Y-124.437
X225.314Y-124.437
X162.766Y-162.537
X172.926Y-162.537
X272.304Y-124.437
X282.464Y-124.437
X158.004Y-124.437
X168.164Y-124.437
X405.971Y-109.832
X405.971Y-119.992
X272.304Y-62.525
X282.464Y-62.525
X91.329Y-62.525
X101.489Y-62.525
X343.741Y-62.525
X353.901Y-62.525
X279.447Y-143.487
X289.607Y-143.487
X81.804Y-124.437
X91.964Y-124.437
X343.741Y-105.387
X353.901Y-105.387
X274.685Y-162.537
X284.845Y-162.537
X229.441Y-105.387
X239.601Y-105.387
X381.841Y-86.337
X392.001Y-86.337
X205.629Y-143.487
X215.789Y-143.487
X319.929Y-124.437
X330.089Y-124.437
X124.666Y-86.337
X134.826Y-86.337
X36.56Y-124.437
X46.72Y-124.437
X234.204Y-62.525
X244.364Y-62.525
X29.416Y-62.525
X39.576Y-62.525
X253.254Y-124.437
X263.414Y-124.437
X338.979Y-167.3
X349.139Y-167.3
X272.304Y-162.537
X282.464Y-162.537
X343.741Y-124.437
X353.901Y-124.437
X196.104Y-124.437
X206.264Y-124.437
X57.991Y-162.537
X68.151Y-162.537
X253.254Y-62.525
X263.414Y-62.525
X381.841Y-105.387
X392.001Y-105.387
X258.016Y-162.537
X268.176Y-162.537
X219.916Y-86.337
X230.076Y-86.337
X74.66Y-162.537
X84.82Y-162.537
X258.016Y-86.337
X268.176Y-86.337
X362.791Y-62.525
X372.951Y-62.525
X277.066Y-162.537
X287.226Y-162.537
X248.491Y-105.387
X258.651Y-105.387
X57.991Y-105.387
X68.151Y-105.387
X296.116Y-62.525
X306.276Y-62.525
X72.279Y-143.487
X82.439Y-143.487
X53.229Y-143.487
X63.389Y-143.487
X55.61Y-162.537
X65.77Y-162.537
X119.904Y-124.437
X130.064Y-124.437
X343.741Y-143.487
X353.901Y-143.487
X150.86Y-162.537
X161.02Y-162.537
X319.929Y-167.3
X330.089Y-167.3
X191.341Y-62.525
X201.501Y-62.525
X215.154Y-62.525
X225.314Y-62.525
X362.791Y-86.337
X372.951Y-86.337
X238.966Y-162.537
X249.126Y-162.537
X319.929Y-86.337
X330.089Y-86.337
X253.254Y-162.537
X263.414Y-162.537
X231.664Y-162.537
X241.824Y-162.537
X153.241Y-105.387
X163.401Y-105.387
X381.841Y-124.437
X392.001Y-124.437
X67.516Y-86.337
X77.676Y-86.337
X77.041Y-105.387
X87.201Y-105.387
X62.754Y-124.437
X72.914Y-124.437
X110.379Y-143.487
X120.539Y-143.487
X129.429Y-143.487
X139.589Y-143.487
X91.329Y-143.487
X101.489Y-143.487
X79.422Y-162.537
X89.582Y-162.537
X381.841Y-162.537
X392.001Y-162.537
X224.679Y-162.537
X234.839Y-162.537
X381.841Y-143.487
X392.001Y-143.487
X362.791Y-105.387
X372.951Y-105.387
X53.229Y-162.537
X63.389Y-162.537
X100.854Y-124.437
X111.014Y-124.437
X143.716Y-162.537
X153.876Y-162.537
X284.21Y-124.437
X294.37Y-124.437
X210.391Y-105.387
X220.551Y-105.387
X115.141Y-105.387
X125.301Y-105.387
X96.091Y-105.387
X106.251Y-105.387
X143.716Y-86.337
X153.876Y-86.337
X186.579Y-143.487
X196.739Y-143.487
X34.179Y-162.537
X44.339Y-162.537
X224.679Y-143.487
X234.839Y-143.487
X148.479Y-143.487
X158.639Y-143.487
X177.054Y-124.437
X187.214Y-124.437
X53.229Y-62.525
X63.389Y-62.525
X405.971Y-147.932
X405.971Y-158.092
X72.279Y-62.525
X82.439Y-62.525
T11
X101.171Y-169.522
X215.471Y-169.522
X110.696Y-169.522
X224.996Y-169.522
X105.94Y-169.522
X205.94Y-169.522
X91.646Y-169.522
X205.946Y-169.522
T12
X277.39Y-117.437
X301.19Y-117.437
X412.971Y-141.112
X412.971Y-164.912
X303.434Y-103.012
X303.434Y-126.812
X279.771Y-79.337
X303.571Y-79.337
X34.502Y-136.487
X58.302Y-136.487
X412.971Y-103.012
X412.971Y-126.812
X272.627Y-136.487
X296.427Y-136.487
T13
X91.646Y-154.282
X205.946Y-154.282
X101.171Y-154.282
X215.471Y-154.282
X110.696Y-154.282
X224.996Y-154.282
X105.94Y-154.282
X205.94Y-154.282
T14
X367.871Y-62.525
X282.146Y-162.537
X253.571Y-105.387
X63.071Y-105.387
X301.196Y-62.525
X77.359Y-143.487
X58.309Y-143.487
X60.69Y-162.537
X124.984Y-124.437
X348.821Y-143.487
X155.94Y-162.537
X325.009Y-167.3
X196.421Y-62.525
X220.234Y-62.525
X367.871Y-86.337
X244.046Y-162.537
X325.009Y-86.337
X258.334Y-162.537
X236.744Y-162.537
X158.321Y-105.387
X386.921Y-124.437
X72.596Y-86.337
X82.121Y-105.387
X67.834Y-124.437
X115.459Y-143.487
X134.509Y-143.487
X96.409Y-143.487
X84.502Y-162.537
X386.921Y-162.537
X229.759Y-162.537
X386.921Y-143.487
X367.871Y-105.387
X58.309Y-162.537
X105.934Y-124.437
X148.796Y-162.537
X277.39Y-132.677
X289.29Y-124.437
X301.19Y-132.677
X215.471Y-105.387
X120.221Y-105.387
X101.171Y-105.387
X148.796Y-86.337
X191.659Y-143.487
X39.259Y-162.537
X229.759Y-143.487
X153.559Y-143.487
X182.134Y-124.437
X58.309Y-62.525
X397.731Y-141.112
X397.731Y-164.912
X405.971Y-153.012
X77.359Y-62.525
X139.271Y-105.387
X367.871Y-124.437
X248.809Y-162.537
X36.877Y-124.437
X67.834Y-162.537
X325.009Y-62.525
X205.946Y-86.337
X196.421Y-105.387
X325.009Y-105.387
X325.009Y-148.25
X36.877Y-162.537
X253.571Y-162.537
X144.034Y-124.437
X367.871Y-143.487
X239.284Y-124.437
X115.459Y-62.525
X288.194Y-103.012
X288.194Y-126.812
X296.434Y-114.912
X139.271Y-62.525
X177.371Y-62.525
X244.046Y-86.337
X167.846Y-86.337
X386.921Y-62.525
X39.259Y-105.387
X248.809Y-143.487
X36.877Y-143.487
X34.496Y-86.337
X91.646Y-86.337
X279.771Y-94.577
X291.671Y-86.337
X303.571Y-94.577
X305.959Y-167.3
X86.884Y-162.537
X296.434Y-114.912
X172.609Y-143.487
X367.871Y-162.537
X34.502Y-151.727
X46.402Y-143.487
X58.302Y-151.727
X158.162Y-62.525
X405.971Y-62.525
X224.996Y-162.537
X186.896Y-86.337
X405.971Y-86.337
X272.621Y-105.387
X348.821Y-86.337
X158.321Y-162.537
X53.546Y-86.337
X296.434Y-105.387
X177.371Y-105.387
X110.696Y-86.337
X220.234Y-124.437
X167.846Y-162.537
X277.384Y-124.437
X163.084Y-124.437
X397.731Y-103.012
X397.731Y-126.812
X405.971Y-114.912
X277.384Y-62.525
X96.409Y-62.525
X348.821Y-62.525
X272.627Y-151.727
X284.527Y-143.487
X296.427Y-151.727
X86.884Y-124.437
X348.821Y-105.387
X279.765Y-162.537
X234.521Y-105.387
X386.921Y-86.337
X210.709Y-143.487
X325.009Y-124.437
X129.746Y-86.337
X41.64Y-124.437
X239.284Y-62.525
X34.496Y-62.525
X258.334Y-124.437
X344.059Y-167.3
X277.384Y-162.537
X348.821Y-124.437
X201.184Y-124.437
X63.071Y-162.537
X258.334Y-62.525
X386.921Y-105.387
X263.096Y-162.537
X224.996Y-86.337
X79.74Y-162.537
X263.096Y-86.337
T2
G00X262.534Y-26.302
M15
G01X262.534Y-25.502
M16
G05
G00X262.534Y-30.032
M15
G01X262.534Y-28.532
M16
G05
G00X271.184Y-26.302
M15
G01X271.184Y-25.502
M16
G05
G00X271.184Y-30.032
M15
G01X271.184Y-28.532
M16
G05
T0
M30
